<?xml version="1.0" standalone="no"?>
<!DOCTYPE svg PUBLIC "-//W3C//DTD SVG 20010904//EN"
 "http://www.w3.org/TR/2001/REC-SVG-20010904/DTD/svg10.dtd">
<svg version="1.0" xmlns="http://www.w3.org/2000/svg"
 width="700.000000pt" height="700.000000pt" viewBox="0 0 700.000000 700.000000"
 preserveAspectRatio="xMidYMid meet">
<metadata>
Created by potrace 1.14, written by Peter Selinger 2001-2017
</metadata>
<g transform="translate(0.000000,700.000000) scale(0.100000,-0.100000)"
fill="#000000" stroke="none">
<path d="M2606 6688 c-84 -10 -227 -57 -304 -99 -60 -33 -131 -85 -195 -142
l-38 -34 -67 20 c-72 20 -253 29 -326 14 -67 -13 -175 -54 -234 -89 -80 -47
-201 -170 -250 -253 -22 -38 -53 -106 -68 -150 -25 -72 -28 -95 -28 -222 l-1
-142 -40 -18 c-116 -50 -233 -147 -301 -251 -153 -230 -144 -549 22 -766 41
-54 41 -56 -6 -166 -81 -193 -159 -482 -185 -686 -4 -27 -8 -60 -11 -74 -17
-107 -23 -433 -10 -600 65 -833 495 -1619 1163 -2128 444 -338 1015 -555 1553
-590 175 -11 464 -5 570 12 14 3 46 7 73 11 26 3 100 16 165 30 627 127 1199
461 1621 946 96 110 101 117 174 218 542 755 703 1715 437 2603 -108 359 -284
699 -509 983 -91 114 -108 133 -261 286 -317 315 -677 538 -1113 688 -260 89
-580 147 -842 152 l-80 2 -42 61 c-41 60 -134 158 -198 208 -171 136 -437 205
-669 176z m249 -403 c306 -80 465 -409 345 -715 -42 -107 -17 -192 77 -261 98
-72 151 -142 181 -239 29 -93 19 -198 -26 -293 -58 -121 -154 -195 -293 -226
-46 -10 -98 -25 -116 -34 -65 -34 -105 -116 -95 -192 13 -93 7 -179 -16 -226
-50 -102 -149 -164 -262 -162 -82 1 -142 30 -221 106 -61 58 -107 77 -174 70
-77 -8 -144 -67 -169 -152 -20 -69 -42 -107 -89 -158 -76 -83 -170 -119 -286
-111 -130 10 -238 84 -297 204 -26 52 -29 69 -29 154 0 118 24 176 109 265 68
71 84 100 92 158 5 32 1 56 -14 88 -43 96 -104 129 -223 122 -136 -8 -231 42
-285 152 -64 133 -14 288 118 360 48 27 62 30 148 31 107 1 131 6 177 41 80
61 94 175 34 272 -105 171 -63 374 99 476 71 45 145 58 233 42 46 -8 65 -16
148 -66 20 -12 59 -24 87 -28 77 -9 129 21 200 115 85 114 170 173 297 207 68
18 178 18 250 0z m892 -449 c45 -4 143 -17 217 -31 735 -136 1375 -595 1755
-1260 28 -49 51 -92 51 -95 0 -4 -53 -17 -117 -30 -469 -91 -982 -337 -1558
-748 -198 -142 -761 -574 -795 -612 -13 -14 -579 -466 -712 -568 -59 -45 -108
-79 -111 -75 -2 5 -3 262 -3 573 l1 565 45 -5 c25 -3 95 -5 155 -4 93 0 122 5
190 28 149 51 267 142 351 268 53 79 103 212 111 295 l6 54 64 29 c115 52 234
149 310 251 110 149 166 326 159 509 -7 198 -81 380 -214 522 l-44 47 12 56
c6 31 13 95 15 143 2 48 4 90 4 94 1 4 7 6 14 3 6 -2 49 -6 94 -9z m2205
-1846 c10 -36 17 -69 15 -73 -1 -5 -32 -19 -67 -31 -209 -74 -384 -197 -630
-445 -213 -214 -370 -408 -750 -926 -458 -625 -602 -804 -850 -1058 -316 -325
-610 -511 -902 -571 -116 -24 -173 -22 -248 9 -271 113 -560 305 -790 525
l-85 81 70 23 c360 116 774 379 1457 927 862 693 1015 810 1323 1016 303 203
621 373 856 458 164 59 358 111 456 121 32 4 60 8 63 11 2 2 18 3 35 1 28 -3
31 -8 47 -68z m-4866 -317 c138 -240 403 -388 676 -378 93 4 194 25 265 57 25
11 47 17 50 14 4 -4 7 -917 3 -1181 0 -54 6 -48 -105 -110 -193 -107 -324
-163 -472 -201 -52 -13 -104 -24 -114 -24 -30 0 -170 249 -252 450 -93 225
-142 430 -182 750 -9 75 -6 378 5 485 11 110 39 285 48 299 2 5 15 -19 28 -52
13 -34 35 -83 50 -109z m4959 -194 c6 -38 6 -362 0 -424 -33 -396 -174 -816
-386 -1152 -89 -142 -161 -237 -269 -357 -367 -407 -828 -674 -1375 -795 -111
-25 -338 -48 -487 -50 -87 -1 -158 0 -158 2 0 2 27 21 61 42 155 95 381 285
545 458 214 225 385 435 691 849 339 458 498 672 515 693 236 291 245 301 400
456 121 121 247 217 362 275 49 24 91 43 93 41 2 -3 6 -20 8 -38z"/>
</g>
</svg>
