<svg width="30" height="32" viewBox="0 -3 33 38" fill="none" xmlns="http://www.w3.org/2000/svg">
<mask id="path-1-outside-1_959_106114" maskUnits="userSpaceOnUse" x="0.214355" y="-0.0712891" width="31" height="34" fill="black">
<rect fill="white" x="0.214355" y="-0.0712891" width="31" height="34"/>
<path d="M2.37662 23.9668C3.12137 25.7421 4.1874 27.3364 5.54519 28.7053C6.90297 30.0742 8.48396 31.149 10.2447 31.8999C12.068 32.6776 14.0045 33.0716 16.0003 33.0716C17.996 33.0716 19.9323 32.6774 21.7556 31.8999C23.5163 31.149 25.0975 30.0742 26.4554 28.7053C27.813 27.3364 28.8789 25.7421 29.6236 23.9668C30.3949 22.1283 30.7858 20.1759 30.7858 18.1637C30.7858 16.3292 30.4596 14.5448 29.8181 12.8509C29.813 12.8359 29.8075 12.8207 29.8012 12.8062C29.7441 12.6571 29.6856 12.5084 29.6235 12.3608C28.8788 10.5855 27.8129 8.99113 26.4553 7.62224C25.0974 6.25335 23.5162 5.17849 21.7554 4.42758C19.9321 3.65008 17.9959 3.25594 16.0001 3.25594C15.9498 3.25594 15.8994 3.25644 15.8489 3.25705C15.474 2.53186 14.9019 1.92564 14.1881 1.51006C13.5346 1.12976 12.7927 0.928711 12.042 0.928711C10.749 0.928711 9.55669 1.49658 8.74608 2.47428C8.2983 2.26048 7.80386 2.14642 7.30663 2.14642C6.72227 2.14642 6.14473 2.30287 5.63632 2.59875C4.26286 3.39818 3.66404 5.03772 4.10817 6.50574C2.7194 6.79463 1.67209 8.03721 1.67209 9.52164C1.67209 10.4071 2.04513 11.206 2.64054 11.7683C1.69396 13.7714 1.21436 15.9209 1.21436 18.1638C1.2146 20.1758 1.60562 22.1284 2.37662 23.9668ZM29.4991 18.1636C29.4991 25.6684 23.4434 31.7741 16.0003 31.7741C15.3265 31.7741 14.6646 31.7234 14.0169 31.6267C15.1753 31.1382 16.3305 30.3455 17.5028 29.2385C19.3115 27.5304 20.9281 25.3162 22.4913 23.175C24.8506 19.9433 27.0889 16.8782 29.3922 16.4464C29.4625 17.0088 29.4991 17.5819 29.4991 18.1636ZM29.1688 15.1679C26.3613 15.686 23.9721 18.9579 21.4547 22.4059C19.9261 24.4998 18.3453 26.6651 16.6229 28.2917C14.7901 30.0227 13.0464 30.8836 11.2971 30.9213C9.15435 30.1157 7.26713 28.7767 5.7961 27.0645C8.72796 26.4606 11.9229 23.8695 15.281 21.1459C19.4416 17.7711 24.1404 13.9607 28.7611 13.7241C28.9224 14.1944 29.0588 14.6761 29.1688 15.1679ZM16.2797 4.55672C21.5852 4.666 26.1483 7.87671 28.255 12.4601C26.1795 12.6526 23.9654 13.467 21.5192 14.9353C19.0797 16.3997 16.7384 18.2986 14.4743 20.1349C13.0646 21.2781 11.6851 22.3969 10.361 23.34V16.1555C10.7612 16.3387 11.2011 16.4363 11.6564 16.4364C11.6565 16.4364 11.6565 16.4364 11.6567 16.4364C12.2017 16.4364 12.7402 16.2905 13.2145 16.0145C14.232 15.4221 14.8168 14.3141 14.7728 13.1672C15.4442 12.9814 16.0544 12.6093 16.5351 12.0845C17.1758 11.3845 17.5286 10.4743 17.5286 9.52127C17.5286 8.37646 17.0059 7.2934 16.1353 6.58133C16.3426 5.92757 16.3915 5.23485 16.2797 4.55672ZM4.72631 7.73973C4.82231 7.73973 4.9206 7.74807 5.0183 7.76448C5.27639 7.80786 5.534 7.68975 5.67143 7.46579C5.80886 7.24182 5.7983 6.95635 5.64495 6.74329C5.60194 6.68351 5.56196 6.62151 5.52611 6.55915C4.9584 5.56749 5.29645 4.2949 6.27997 3.72225C6.59311 3.54006 6.94804 3.44376 7.30687 3.44376C7.74844 3.44376 8.18627 3.58968 8.53975 3.85469C8.68459 3.96324 8.86818 4.00539 9.04535 3.97108C9.22264 3.93666 9.37732 3.82871 9.47186 3.6736C10.0243 2.76722 10.9852 2.22605 12.0421 2.22605C12.5672 2.22605 13.0869 2.36707 13.5447 2.63355C14.886 3.41435 15.424 5.13329 14.7697 6.54665C14.6295 6.84964 14.7404 7.21034 15.0262 7.38002C15.7761 7.82538 16.2419 8.64588 16.2419 9.52127C16.2419 10.7995 15.2537 11.8861 13.9919 11.9949C13.8021 12.0112 13.6292 12.1117 13.5198 12.269C13.4104 12.4264 13.3759 12.6244 13.4254 12.8099C13.6408 13.6168 13.2895 14.4725 12.571 14.8906C12.2923 15.053 11.9761 15.1387 11.6567 15.1387H11.6565C11.0931 15.1387 10.57 14.8852 10.221 14.4434C10.2195 14.4417 10.2182 14.4402 10.2169 14.4387C10.2137 14.4347 10.2104 14.4309 10.2071 14.4273C10.1979 14.4164 10.1884 14.4058 10.1787 14.3955C10.1751 14.3919 10.1712 14.3878 10.1673 14.3841C10.1551 14.3721 10.1425 14.3604 10.1296 14.3495C10.1284 14.3485 10.1273 14.3474 10.1262 14.3465C10.112 14.3349 10.0975 14.324 10.0825 14.3136C10.0776 14.3103 10.0726 14.3071 10.0679 14.3038C10.0571 14.2968 10.046 14.2899 10.0348 14.2835C10.0295 14.2804 10.024 14.2772 10.0183 14.2741C10.0034 14.266 9.98793 14.2586 9.97225 14.2518C9.9663 14.2492 9.96022 14.2469 9.95414 14.2446C9.94296 14.2401 9.93179 14.2359 9.92037 14.2321C9.91332 14.2296 9.90615 14.2274 9.89898 14.2254C9.88476 14.2211 9.8703 14.2173 9.85584 14.2142C9.8505 14.2129 9.84516 14.2118 9.83969 14.2108C9.82377 14.2077 9.8076 14.2053 9.79132 14.2033C9.78573 14.2027 9.78001 14.2022 9.77442 14.2017C9.75729 14.2 9.73992 14.1991 9.72242 14.199C9.72072 14.199 9.71914 14.1989 9.71743 14.1989C9.71695 14.1989 9.71646 14.1989 9.7161 14.1989C9.69702 14.1989 9.67795 14.2001 9.65887 14.2018C9.65292 14.2022 9.64709 14.2031 9.64113 14.2038C9.62777 14.2053 9.61439 14.2075 9.60102 14.2099C9.59483 14.211 9.58852 14.2121 9.58232 14.2135C9.58111 14.2136 9.58002 14.2137 9.57892 14.2141C9.56301 14.2175 9.54732 14.2218 9.53189 14.2265C9.52496 14.2285 9.51828 14.231 9.5116 14.2334C9.50066 14.2371 9.4896 14.2412 9.47879 14.2454C9.47186 14.2483 9.46506 14.2511 9.45826 14.2541C9.44525 14.2598 9.4325 14.266 9.42011 14.2726C9.41537 14.2751 9.41074 14.2774 9.40612 14.28C9.39178 14.2881 9.37781 14.2967 9.36408 14.3057C9.3591 14.3092 9.35411 14.3126 9.34913 14.316C9.33795 14.324 9.32703 14.3321 9.31633 14.3408C9.31245 14.344 9.30855 14.3469 9.30466 14.3501C9.29081 14.362 9.27733 14.3741 9.26445 14.3868C9.26177 14.3895 9.25921 14.3925 9.25654 14.3953C9.24621 14.4058 9.23625 14.417 9.22677 14.4282C9.22313 14.4327 9.2196 14.4371 9.21608 14.4414C9.20648 14.4534 9.19725 14.4657 9.1885 14.4785C9.18668 14.4812 9.18461 14.4837 9.18279 14.4866C9.17307 14.5013 9.16395 14.5165 9.15532 14.532C9.15216 14.5379 9.149 14.5439 9.14596 14.5499C9.14061 14.5606 9.13527 14.5715 9.13053 14.5824C9.12762 14.589 9.12458 14.5955 9.12178 14.6022C9.11534 14.618 9.10939 14.6343 9.10416 14.6507C9.10222 14.657 9.10064 14.6632 9.09894 14.6696C9.09651 14.6779 9.09408 14.6863 9.09201 14.6948C9.04183 14.9025 8.96284 15.1014 8.85737 15.2859C8.4627 15.975 7.72659 16.4031 6.93602 16.4031C6.54998 16.4031 6.16794 16.2996 5.83111 16.1034C5.31857 15.8051 4.95209 15.3235 4.79886 14.747C4.64575 14.1707 4.72436 13.5689 5.02024 13.0522C5.16035 12.8076 5.34238 12.5948 5.56159 12.4196C5.79307 12.2346 5.86986 11.9147 5.74798 11.6434C5.64239 11.4084 5.41116 11.2624 5.16218 11.2624C5.12378 11.2624 5.08526 11.2658 5.0465 11.2729C4.93872 11.2928 4.83081 11.3028 4.72582 11.3028C3.75153 11.3028 2.95891 10.5036 2.95879 9.52127C2.95939 8.53904 3.75202 7.73973 4.72631 7.73973ZM3.75007 12.4389C3.78835 12.452 3.82687 12.4644 3.86587 12.4759C3.43159 13.2762 3.32138 14.1988 3.55638 15.0829C3.79843 15.994 4.37806 16.7555 5.18818 17.2272C5.72029 17.5368 6.32492 17.7007 6.93662 17.7007C7.72025 17.7007 8.47023 17.434 9.07427 16.9662V24.2078C7.5804 25.1511 6.17267 25.7893 4.89108 25.8853C3.38517 23.6898 2.50166 21.0288 2.50166 18.1635C2.50154 16.158 2.92148 14.2347 3.75007 12.4389Z"/>
</mask>
<path d="M2.37662 23.9668C3.12137 25.7421 4.1874 27.3364 5.54519 28.7053C6.90297 30.0742 8.48396 31.149 10.2447 31.8999C12.068 32.6776 14.0045 33.0716 16.0003 33.0716C17.996 33.0716 19.9323 32.6774 21.7556 31.8999C23.5163 31.149 25.0975 30.0742 26.4554 28.7053C27.813 27.3364 28.8789 25.7421 29.6236 23.9668C30.3949 22.1283 30.7858 20.1759 30.7858 18.1637C30.7858 16.3292 30.4596 14.5448 29.8181 12.8509C29.813 12.8359 29.8075 12.8207 29.8012 12.8062C29.7441 12.6571 29.6856 12.5084 29.6235 12.3608C28.8788 10.5855 27.8129 8.99113 26.4553 7.62224C25.0974 6.25335 23.5162 5.17849 21.7554 4.42758C19.9321 3.65008 17.9959 3.25594 16.0001 3.25594C15.9498 3.25594 15.8994 3.25644 15.8489 3.25705C15.474 2.53186 14.9019 1.92564 14.1881 1.51006C13.5346 1.12976 12.7927 0.928711 12.042 0.928711C10.749 0.928711 9.55669 1.49658 8.74608 2.47428C8.2983 2.26048 7.80386 2.14642 7.30663 2.14642C6.72227 2.14642 6.14473 2.30287 5.63632 2.59875C4.26286 3.39818 3.66404 5.03772 4.10817 6.50574C2.7194 6.79463 1.67209 8.03721 1.67209 9.52164C1.67209 10.4071 2.04513 11.206 2.64054 11.7683C1.69396 13.7714 1.21436 15.9209 1.21436 18.1638C1.2146 20.1758 1.60562 22.1284 2.37662 23.9668ZM29.4991 18.1636C29.4991 25.6684 23.4434 31.7741 16.0003 31.7741C15.3265 31.7741 14.6646 31.7234 14.0169 31.6267C15.1753 31.1382 16.3305 30.3455 17.5028 29.2385C19.3115 27.5304 20.9281 25.3162 22.4913 23.175C24.8506 19.9433 27.0889 16.8782 29.3922 16.4464C29.4625 17.0088 29.4991 17.5819 29.4991 18.1636ZM29.1688 15.1679C26.3613 15.686 23.9721 18.9579 21.4547 22.4059C19.9261 24.4998 18.3453 26.6651 16.6229 28.2917C14.7901 30.0227 13.0464 30.8836 11.2971 30.9213C9.15435 30.1157 7.26713 28.7767 5.7961 27.0645C8.72796 26.4606 11.9229 23.8695 15.281 21.1459C19.4416 17.7711 24.1404 13.9607 28.7611 13.7241C28.9224 14.1944 29.0588 14.6761 29.1688 15.1679ZM16.2797 4.55672C21.5852 4.666 26.1483 7.87671 28.255 12.4601C26.1795 12.6526 23.9654 13.467 21.5192 14.9353C19.0797 16.3997 16.7384 18.2986 14.4743 20.1349C13.0646 21.2781 11.6851 22.3969 10.361 23.34V16.1555C10.7612 16.3387 11.2011 16.4363 11.6564 16.4364C11.6565 16.4364 11.6565 16.4364 11.6567 16.4364C12.2017 16.4364 12.7402 16.2905 13.2145 16.0145C14.232 15.4221 14.8168 14.3141 14.7728 13.1672C15.4442 12.9814 16.0544 12.6093 16.5351 12.0845C17.1758 11.3845 17.5286 10.4743 17.5286 9.52127C17.5286 8.37646 17.0059 7.2934 16.1353 6.58133C16.3426 5.92757 16.3915 5.23485 16.2797 4.55672ZM4.72631 7.73973C4.82231 7.73973 4.9206 7.74807 5.0183 7.76448C5.27639 7.80786 5.534 7.68975 5.67143 7.46579C5.80886 7.24182 5.7983 6.95635 5.64495 6.74329C5.60194 6.68351 5.56196 6.62151 5.52611 6.55915C4.9584 5.56749 5.29645 4.2949 6.27997 3.72225C6.59311 3.54006 6.94804 3.44376 7.30687 3.44376C7.74844 3.44376 8.18627 3.58968 8.53975 3.85469C8.68459 3.96324 8.86818 4.00539 9.04535 3.97108C9.22264 3.93666 9.37732 3.82871 9.47186 3.6736C10.0243 2.76722 10.9852 2.22605 12.0421 2.22605C12.5672 2.22605 13.0869 2.36707 13.5447 2.63355C14.886 3.41435 15.424 5.13329 14.7697 6.54665C14.6295 6.84964 14.7404 7.21034 15.0262 7.38002C15.7761 7.82538 16.2419 8.64588 16.2419 9.52127C16.2419 10.7995 15.2537 11.8861 13.9919 11.9949C13.8021 12.0112 13.6292 12.1117 13.5198 12.269C13.4104 12.4264 13.3759 12.6244 13.4254 12.8099C13.6408 13.6168 13.2895 14.4725 12.571 14.8906C12.2923 15.053 11.9761 15.1387 11.6567 15.1387H11.6565C11.0931 15.1387 10.57 14.8852 10.221 14.4434C10.2195 14.4417 10.2182 14.4402 10.2169 14.4387C10.2137 14.4347 10.2104 14.4309 10.2071 14.4273C10.1979 14.4164 10.1884 14.4058 10.1787 14.3955C10.1751 14.3919 10.1712 14.3878 10.1673 14.3841C10.1551 14.3721 10.1425 14.3604 10.1296 14.3495C10.1284 14.3485 10.1273 14.3474 10.1262 14.3465C10.112 14.3349 10.0975 14.324 10.0825 14.3136C10.0776 14.3103 10.0726 14.3071 10.0679 14.3038C10.0571 14.2968 10.046 14.2899 10.0348 14.2835C10.0295 14.2804 10.024 14.2772 10.0183 14.2741C10.0034 14.266 9.98793 14.2586 9.97225 14.2518C9.9663 14.2492 9.96022 14.2469 9.95414 14.2446C9.94296 14.2401 9.93179 14.2359 9.92037 14.2321C9.91332 14.2296 9.90615 14.2274 9.89898 14.2254C9.88476 14.2211 9.8703 14.2173 9.85584 14.2142C9.8505 14.2129 9.84516 14.2118 9.83969 14.2108C9.82377 14.2077 9.8076 14.2053 9.79132 14.2033C9.78573 14.2027 9.78001 14.2022 9.77442 14.2017C9.75729 14.2 9.73992 14.1991 9.72242 14.199C9.72072 14.199 9.71914 14.1989 9.71743 14.1989C9.71695 14.1989 9.71646 14.1989 9.7161 14.1989C9.69702 14.1989 9.67795 14.2001 9.65887 14.2018C9.65292 14.2022 9.64709 14.2031 9.64113 14.2038C9.62777 14.2053 9.61439 14.2075 9.60102 14.2099C9.59483 14.211 9.58852 14.2121 9.58232 14.2135C9.58111 14.2136 9.58002 14.2137 9.57892 14.2141C9.56301 14.2175 9.54732 14.2218 9.53189 14.2265C9.52496 14.2285 9.51828 14.231 9.5116 14.2334C9.50066 14.2371 9.4896 14.2412 9.47879 14.2454C9.47186 14.2483 9.46506 14.2511 9.45826 14.2541C9.44525 14.2598 9.4325 14.266 9.42011 14.2726C9.41537 14.2751 9.41074 14.2774 9.40612 14.28C9.39178 14.2881 9.37781 14.2967 9.36408 14.3057C9.3591 14.3092 9.35411 14.3126 9.34913 14.316C9.33795 14.324 9.32703 14.3321 9.31633 14.3408C9.31245 14.344 9.30855 14.3469 9.30466 14.3501C9.29081 14.362 9.27733 14.3741 9.26445 14.3868C9.26177 14.3895 9.25921 14.3925 9.25654 14.3953C9.24621 14.4058 9.23625 14.417 9.22677 14.4282C9.22313 14.4327 9.2196 14.4371 9.21608 14.4414C9.20648 14.4534 9.19725 14.4657 9.1885 14.4785C9.18668 14.4812 9.18461 14.4837 9.18279 14.4866C9.17307 14.5013 9.16395 14.5165 9.15532 14.532C9.15216 14.5379 9.149 14.5439 9.14596 14.5499C9.14061 14.5606 9.13527 14.5715 9.13053 14.5824C9.12762 14.589 9.12458 14.5955 9.12178 14.6022C9.11534 14.618 9.10939 14.6343 9.10416 14.6507C9.10222 14.657 9.10064 14.6632 9.09894 14.6696C9.09651 14.6779 9.09408 14.6863 9.09201 14.6948C9.04183 14.9025 8.96284 15.1014 8.85737 15.2859C8.4627 15.975 7.72659 16.4031 6.93602 16.4031C6.54998 16.4031 6.16794 16.2996 5.83111 16.1034C5.31857 15.8051 4.95209 15.3235 4.79886 14.747C4.64575 14.1707 4.72436 13.5689 5.02024 13.0522C5.16035 12.8076 5.34238 12.5948 5.56159 12.4196C5.79307 12.2346 5.86986 11.9147 5.74798 11.6434C5.64239 11.4084 5.41116 11.2624 5.16218 11.2624C5.12378 11.2624 5.08526 11.2658 5.0465 11.2729C4.93872 11.2928 4.83081 11.3028 4.72582 11.3028C3.75153 11.3028 2.95891 10.5036 2.95879 9.52127C2.95939 8.53904 3.75202 7.73973 4.72631 7.73973ZM3.75007 12.4389C3.78835 12.452 3.82687 12.4644 3.86587 12.4759C3.43159 13.2762 3.32138 14.1988 3.55638 15.0829C3.79843 15.994 4.37806 16.7555 5.18818 17.2272C5.72029 17.5368 6.32492 17.7007 6.93662 17.7007C7.72025 17.7007 8.47023 17.434 9.07427 16.9662V24.2078C7.5804 25.1511 6.17267 25.7893 4.89108 25.8853C3.38517 23.6898 2.50166 21.0288 2.50166 18.1635C2.50154 16.158 2.92148 14.2347 3.75007 12.4389Z" fill="url(#paint0_linear_959_106114)"/>
<path d="M2.37662 23.9668C3.12137 25.7421 4.1874 27.3364 5.54519 28.7053C6.90297 30.0742 8.48396 31.149 10.2447 31.8999C12.068 32.6776 14.0045 33.0716 16.0003 33.0716C17.996 33.0716 19.9323 32.6774 21.7556 31.8999C23.5163 31.149 25.0975 30.0742 26.4554 28.7053C27.813 27.3364 28.8789 25.7421 29.6236 23.9668C30.3949 22.1283 30.7858 20.1759 30.7858 18.1637C30.7858 16.3292 30.4596 14.5448 29.8181 12.8509C29.813 12.8359 29.8075 12.8207 29.8012 12.8062C29.7441 12.6571 29.6856 12.5084 29.6235 12.3608C28.8788 10.5855 27.8129 8.99113 26.4553 7.62224C25.0974 6.25335 23.5162 5.17849 21.7554 4.42758C19.9321 3.65008 17.9959 3.25594 16.0001 3.25594C15.9498 3.25594 15.8994 3.25644 15.8489 3.25705C15.474 2.53186 14.9019 1.92564 14.1881 1.51006C13.5346 1.12976 12.7927 0.928711 12.042 0.928711C10.749 0.928711 9.55669 1.49658 8.74608 2.47428C8.2983 2.26048 7.80386 2.14642 7.30663 2.14642C6.72227 2.14642 6.14473 2.30287 5.63632 2.59875C4.26286 3.39818 3.66404 5.03772 4.10817 6.50574C2.7194 6.79463 1.67209 8.03721 1.67209 9.52164C1.67209 10.4071 2.04513 11.206 2.64054 11.7683C1.69396 13.7714 1.21436 15.9209 1.21436 18.1638C1.2146 20.1758 1.60562 22.1284 2.37662 23.9668ZM29.4991 18.1636C29.4991 25.6684 23.4434 31.7741 16.0003 31.7741C15.3265 31.7741 14.6646 31.7234 14.0169 31.6267C15.1753 31.1382 16.3305 30.3455 17.5028 29.2385C19.3115 27.5304 20.9281 25.3162 22.4913 23.175C24.8506 19.9433 27.0889 16.8782 29.3922 16.4464C29.4625 17.0088 29.4991 17.5819 29.4991 18.1636ZM29.1688 15.1679C26.3613 15.686 23.9721 18.9579 21.4547 22.4059C19.9261 24.4998 18.3453 26.6651 16.6229 28.2917C14.7901 30.0227 13.0464 30.8836 11.2971 30.9213C9.15435 30.1157 7.26713 28.7767 5.7961 27.0645C8.72796 26.4606 11.9229 23.8695 15.281 21.1459C19.4416 17.7711 24.1404 13.9607 28.7611 13.7241C28.9224 14.1944 29.0588 14.6761 29.1688 15.1679ZM16.2797 4.55672C21.5852 4.666 26.1483 7.87671 28.255 12.4601C26.1795 12.6526 23.9654 13.467 21.5192 14.9353C19.0797 16.3997 16.7384 18.2986 14.4743 20.1349C13.0646 21.2781 11.6851 22.3969 10.361 23.34V16.1555C10.7612 16.3387 11.2011 16.4363 11.6564 16.4364C11.6565 16.4364 11.6565 16.4364 11.6567 16.4364C12.2017 16.4364 12.7402 16.2905 13.2145 16.0145C14.232 15.4221 14.8168 14.3141 14.7728 13.1672C15.4442 12.9814 16.0544 12.6093 16.5351 12.0845C17.1758 11.3845 17.5286 10.4743 17.5286 9.52127C17.5286 8.37646 17.0059 7.2934 16.1353 6.58133C16.3426 5.92757 16.3915 5.23485 16.2797 4.55672ZM4.72631 7.73973C4.82231 7.73973 4.9206 7.74807 5.0183 7.76448C5.27639 7.80786 5.534 7.68975 5.67143 7.46579C5.80886 7.24182 5.7983 6.95635 5.64495 6.74329C5.60194 6.68351 5.56196 6.62151 5.52611 6.55915C4.9584 5.56749 5.29645 4.2949 6.27997 3.72225C6.59311 3.54006 6.94804 3.44376 7.30687 3.44376C7.74844 3.44376 8.18627 3.58968 8.53975 3.85469C8.68459 3.96324 8.86818 4.00539 9.04535 3.97108C9.22264 3.93666 9.37732 3.82871 9.47186 3.6736C10.0243 2.76722 10.9852 2.22605 12.0421 2.22605C12.5672 2.22605 13.0869 2.36707 13.5447 2.63355C14.886 3.41435 15.424 5.13329 14.7697 6.54665C14.6295 6.84964 14.7404 7.21034 15.0262 7.38002C15.7761 7.82538 16.2419 8.64588 16.2419 9.52127C16.2419 10.7995 15.2537 11.8861 13.9919 11.9949C13.8021 12.0112 13.6292 12.1117 13.5198 12.269C13.4104 12.4264 13.3759 12.6244 13.4254 12.8099C13.6408 13.6168 13.2895 14.4725 12.571 14.8906C12.2923 15.053 11.9761 15.1387 11.6567 15.1387H11.6565C11.0931 15.1387 10.57 14.8852 10.221 14.4434C10.2195 14.4417 10.2182 14.4402 10.2169 14.4387C10.2137 14.4347 10.2104 14.4309 10.2071 14.4273C10.1979 14.4164 10.1884 14.4058 10.1787 14.3955C10.1751 14.3919 10.1712 14.3878 10.1673 14.3841C10.1551 14.3721 10.1425 14.3604 10.1296 14.3495C10.1284 14.3485 10.1273 14.3474 10.1262 14.3465C10.112 14.3349 10.0975 14.324 10.0825 14.3136C10.0776 14.3103 10.0726 14.3071 10.0679 14.3038C10.0571 14.2968 10.046 14.2899 10.0348 14.2835C10.0295 14.2804 10.024 14.2772 10.0183 14.2741C10.0034 14.266 9.98793 14.2586 9.97225 14.2518C9.9663 14.2492 9.96022 14.2469 9.95414 14.2446C9.94296 14.2401 9.93179 14.2359 9.92037 14.2321C9.91332 14.2296 9.90615 14.2274 9.89898 14.2254C9.88476 14.2211 9.8703 14.2173 9.85584 14.2142C9.8505 14.2129 9.84516 14.2118 9.83969 14.2108C9.82377 14.2077 9.8076 14.2053 9.79132 14.2033C9.78573 14.2027 9.78001 14.2022 9.77442 14.2017C9.75729 14.2 9.73992 14.1991 9.72242 14.199C9.72072 14.199 9.71914 14.1989 9.71743 14.1989C9.71695 14.1989 9.71646 14.1989 9.7161 14.1989C9.69702 14.1989 9.67795 14.2001 9.65887 14.2018C9.65292 14.2022 9.64709 14.2031 9.64113 14.2038C9.62777 14.2053 9.61439 14.2075 9.60102 14.2099C9.59483 14.211 9.58852 14.2121 9.58232 14.2135C9.58111 14.2136 9.58002 14.2137 9.57892 14.2141C9.56301 14.2175 9.54732 14.2218 9.53189 14.2265C9.52496 14.2285 9.51828 14.231 9.5116 14.2334C9.50066 14.2371 9.4896 14.2412 9.47879 14.2454C9.47186 14.2483 9.46506 14.2511 9.45826 14.2541C9.44525 14.2598 9.4325 14.266 9.42011 14.2726C9.41537 14.2751 9.41074 14.2774 9.40612 14.28C9.39178 14.2881 9.37781 14.2967 9.36408 14.3057C9.3591 14.3092 9.35411 14.3126 9.34913 14.316C9.33795 14.324 9.32703 14.3321 9.31633 14.3408C9.31245 14.344 9.30855 14.3469 9.30466 14.3501C9.29081 14.362 9.27733 14.3741 9.26445 14.3868C9.26177 14.3895 9.25921 14.3925 9.25654 14.3953C9.24621 14.4058 9.23625 14.417 9.22677 14.4282C9.22313 14.4327 9.2196 14.4371 9.21608 14.4414C9.20648 14.4534 9.19725 14.4657 9.1885 14.4785C9.18668 14.4812 9.18461 14.4837 9.18279 14.4866C9.17307 14.5013 9.16395 14.5165 9.15532 14.532C9.15216 14.5379 9.149 14.5439 9.14596 14.5499C9.14061 14.5606 9.13527 14.5715 9.13053 14.5824C9.12762 14.589 9.12458 14.5955 9.12178 14.6022C9.11534 14.618 9.10939 14.6343 9.10416 14.6507C9.10222 14.657 9.10064 14.6632 9.09894 14.6696C9.09651 14.6779 9.09408 14.6863 9.09201 14.6948C9.04183 14.9025 8.96284 15.1014 8.85737 15.2859C8.4627 15.975 7.72659 16.4031 6.93602 16.4031C6.54998 16.4031 6.16794 16.2996 5.83111 16.1034C5.31857 15.8051 4.95209 15.3235 4.79886 14.747C4.64575 14.1707 4.72436 13.5689 5.02024 13.0522C5.16035 12.8076 5.34238 12.5948 5.56159 12.4196C5.79307 12.2346 5.86986 11.9147 5.74798 11.6434C5.64239 11.4084 5.41116 11.2624 5.16218 11.2624C5.12378 11.2624 5.08526 11.2658 5.0465 11.2729C4.93872 11.2928 4.83081 11.3028 4.72582 11.3028C3.75153 11.3028 2.95891 10.5036 2.95879 9.52127C2.95939 8.53904 3.75202 7.73973 4.72631 7.73973ZM3.75007 12.4389C3.78835 12.452 3.82687 12.4644 3.86587 12.4759C3.43159 13.2762 3.32138 14.1988 3.55638 15.0829C3.79843 15.994 4.37806 16.7555 5.18818 17.2272C5.72029 17.5368 6.32492 17.7007 6.93662 17.7007C7.72025 17.7007 8.47023 17.434 9.07427 16.9662V24.2078C7.5804 25.1511 6.17267 25.7893 4.89108 25.8853C3.38517 23.6898 2.50166 21.0288 2.50166 18.1635C2.50154 16.158 2.92148 14.2347 3.75007 12.4389Z" stroke="url(#paint1_linear_959_106114)" stroke-width="0.713923" mask="url(#path-1-outside-1_959_106114)"/>
<path d="M2.37662 23.9668C3.12137 25.7421 4.1874 27.3364 5.54519 28.7053C6.90297 30.0742 8.48396 31.149 10.2447 31.8999C12.068 32.6776 14.0045 33.0716 16.0003 33.0716C17.996 33.0716 19.9323 32.6774 21.7556 31.8999C23.5163 31.149 25.0975 30.0742 26.4554 28.7053C27.813 27.3364 28.8789 25.7421 29.6236 23.9668C30.3949 22.1283 30.7858 20.1759 30.7858 18.1637C30.7858 16.3292 30.4596 14.5448 29.8181 12.8509C29.813 12.8359 29.8075 12.8207 29.8012 12.8062C29.7441 12.6571 29.6856 12.5084 29.6235 12.3608C28.8788 10.5855 27.8129 8.99113 26.4553 7.62224C25.0974 6.25335 23.5162 5.17849 21.7554 4.42758C19.9321 3.65008 17.9959 3.25594 16.0001 3.25594C15.9498 3.25594 15.8994 3.25644 15.8489 3.25705C15.474 2.53186 14.9019 1.92564 14.1881 1.51006C13.5346 1.12976 12.7927 0.928711 12.042 0.928711C10.749 0.928711 9.55669 1.49658 8.74608 2.47428C8.2983 2.26048 7.80386 2.14642 7.30663 2.14642C6.72227 2.14642 6.14473 2.30287 5.63632 2.59875C4.26286 3.39818 3.66404 5.03772 4.10817 6.50574C2.7194 6.79463 1.67209 8.03721 1.67209 9.52164C1.67209 10.4071 2.04513 11.206 2.64054 11.7683C1.69396 13.7714 1.21436 15.9209 1.21436 18.1638C1.2146 20.1758 1.60562 22.1284 2.37662 23.9668ZM29.4991 18.1636C29.4991 25.6684 23.4434 31.7741 16.0003 31.7741C15.3265 31.7741 14.6646 31.7234 14.0169 31.6267C15.1753 31.1382 16.3305 30.3455 17.5028 29.2385C19.3115 27.5304 20.9281 25.3162 22.4913 23.175C24.8506 19.9433 27.0889 16.8782 29.3922 16.4464C29.4625 17.0088 29.4991 17.5819 29.4991 18.1636ZM29.1688 15.1679C26.3613 15.686 23.9721 18.9579 21.4547 22.4059C19.9261 24.4998 18.3453 26.6651 16.6229 28.2917C14.7901 30.0227 13.0464 30.8836 11.2971 30.9213C9.15435 30.1157 7.26713 28.7767 5.7961 27.0645C8.72796 26.4606 11.9229 23.8695 15.281 21.1459C19.4416 17.7711 24.1404 13.9607 28.7611 13.7241C28.9224 14.1944 29.0588 14.6761 29.1688 15.1679ZM16.2797 4.55672C21.5852 4.666 26.1483 7.87671 28.255 12.4601C26.1795 12.6526 23.9654 13.467 21.5192 14.9353C19.0797 16.3997 16.7384 18.2986 14.4743 20.1349C13.0646 21.2781 11.6851 22.3969 10.361 23.34V16.1555C10.7612 16.3387 11.2011 16.4363 11.6564 16.4364C11.6565 16.4364 11.6565 16.4364 11.6567 16.4364C12.2017 16.4364 12.7402 16.2905 13.2145 16.0145C14.232 15.4221 14.8168 14.3141 14.7728 13.1672C15.4442 12.9814 16.0544 12.6093 16.5351 12.0845C17.1758 11.3845 17.5286 10.4743 17.5286 9.52127C17.5286 8.37646 17.0059 7.2934 16.1353 6.58133C16.3426 5.92757 16.3915 5.23485 16.2797 4.55672ZM4.72631 7.73973C4.82231 7.73973 4.9206 7.74807 5.0183 7.76448C5.27639 7.80786 5.534 7.68975 5.67143 7.46579C5.80886 7.24182 5.7983 6.95635 5.64495 6.74329C5.60194 6.68351 5.56196 6.62151 5.52611 6.55915C4.9584 5.56749 5.29645 4.2949 6.27997 3.72225C6.59311 3.54006 6.94804 3.44376 7.30687 3.44376C7.74844 3.44376 8.18627 3.58968 8.53975 3.85469C8.68459 3.96324 8.86818 4.00539 9.04535 3.97108C9.22264 3.93666 9.37732 3.82871 9.47186 3.6736C10.0243 2.76722 10.9852 2.22605 12.0421 2.22605C12.5672 2.22605 13.0869 2.36707 13.5447 2.63355C14.886 3.41435 15.424 5.13329 14.7697 6.54665C14.6295 6.84964 14.7404 7.21034 15.0262 7.38002C15.7761 7.82538 16.2419 8.64588 16.2419 9.52127C16.2419 10.7995 15.2537 11.8861 13.9919 11.9949C13.8021 12.0112 13.6292 12.1117 13.5198 12.269C13.4104 12.4264 13.3759 12.6244 13.4254 12.8099C13.6408 13.6168 13.2895 14.4725 12.571 14.8906C12.2923 15.053 11.9761 15.1387 11.6567 15.1387H11.6565C11.0931 15.1387 10.57 14.8852 10.221 14.4434C10.2195 14.4417 10.2182 14.4402 10.2169 14.4387C10.2137 14.4347 10.2104 14.4309 10.2071 14.4273C10.1979 14.4164 10.1884 14.4058 10.1787 14.3955C10.1751 14.3919 10.1712 14.3878 10.1673 14.3841C10.1551 14.3721 10.1425 14.3604 10.1296 14.3495C10.1284 14.3485 10.1273 14.3474 10.1262 14.3465C10.112 14.3349 10.0975 14.324 10.0825 14.3136C10.0776 14.3103 10.0726 14.3071 10.0679 14.3038C10.0571 14.2968 10.046 14.2899 10.0348 14.2835C10.0295 14.2804 10.024 14.2772 10.0183 14.2741C10.0034 14.266 9.98793 14.2586 9.97225 14.2518C9.9663 14.2492 9.96022 14.2469 9.95414 14.2446C9.94296 14.2401 9.93179 14.2359 9.92037 14.2321C9.91332 14.2296 9.90615 14.2274 9.89898 14.2254C9.88476 14.2211 9.8703 14.2173 9.85584 14.2142C9.8505 14.2129 9.84516 14.2118 9.83969 14.2108C9.82377 14.2077 9.8076 14.2053 9.79132 14.2033C9.78573 14.2027 9.78001 14.2022 9.77442 14.2017C9.75729 14.2 9.73992 14.1991 9.72242 14.199C9.72072 14.199 9.71914 14.1989 9.71743 14.1989C9.71695 14.1989 9.71646 14.1989 9.7161 14.1989C9.69702 14.1989 9.67795 14.2001 9.65887 14.2018C9.65292 14.2022 9.64709 14.2031 9.64113 14.2038C9.62777 14.2053 9.61439 14.2075 9.60102 14.2099C9.59483 14.211 9.58852 14.2121 9.58232 14.2135C9.58111 14.2136 9.58002 14.2137 9.57892 14.2141C9.56301 14.2175 9.54732 14.2218 9.53189 14.2265C9.52496 14.2285 9.51828 14.231 9.5116 14.2334C9.50066 14.2371 9.4896 14.2412 9.47879 14.2454C9.47186 14.2483 9.46506 14.2511 9.45826 14.2541C9.44525 14.2598 9.4325 14.266 9.42011 14.2726C9.41537 14.2751 9.41074 14.2774 9.40612 14.28C9.39178 14.2881 9.37781 14.2967 9.36408 14.3057C9.3591 14.3092 9.35411 14.3126 9.34913 14.316C9.33795 14.324 9.32703 14.3321 9.31633 14.3408C9.31245 14.344 9.30855 14.3469 9.30466 14.3501C9.29081 14.362 9.27733 14.3741 9.26445 14.3868C9.26177 14.3895 9.25921 14.3925 9.25654 14.3953C9.24621 14.4058 9.23625 14.417 9.22677 14.4282C9.22313 14.4327 9.2196 14.4371 9.21608 14.4414C9.20648 14.4534 9.19725 14.4657 9.1885 14.4785C9.18668 14.4812 9.18461 14.4837 9.18279 14.4866C9.17307 14.5013 9.16395 14.5165 9.15532 14.532C9.15216 14.5379 9.149 14.5439 9.14596 14.5499C9.14061 14.5606 9.13527 14.5715 9.13053 14.5824C9.12762 14.589 9.12458 14.5955 9.12178 14.6022C9.11534 14.618 9.10939 14.6343 9.10416 14.6507C9.10222 14.657 9.10064 14.6632 9.09894 14.6696C9.09651 14.6779 9.09408 14.6863 9.09201 14.6948C9.04183 14.9025 8.96284 15.1014 8.85737 15.2859C8.4627 15.975 7.72659 16.4031 6.93602 16.4031C6.54998 16.4031 6.16794 16.2996 5.83111 16.1034C5.31857 15.8051 4.95209 15.3235 4.79886 14.747C4.64575 14.1707 4.72436 13.5689 5.02024 13.0522C5.16035 12.8076 5.34238 12.5948 5.56159 12.4196C5.79307 12.2346 5.86986 11.9147 5.74798 11.6434C5.64239 11.4084 5.41116 11.2624 5.16218 11.2624C5.12378 11.2624 5.08526 11.2658 5.0465 11.2729C4.93872 11.2928 4.83081 11.3028 4.72582 11.3028C3.75153 11.3028 2.95891 10.5036 2.95879 9.52127C2.95939 8.53904 3.75202 7.73973 4.72631 7.73973ZM3.75007 12.4389C3.78835 12.452 3.82687 12.4644 3.86587 12.4759C3.43159 13.2762 3.32138 14.1988 3.55638 15.0829C3.79843 15.994 4.37806 16.7555 5.18818 17.2272C5.72029 17.5368 6.32492 17.7007 6.93662 17.7007C7.72025 17.7007 8.47023 17.434 9.07427 16.9662V24.2078C7.5804 25.1511 6.17267 25.7893 4.89108 25.8853C3.38517 23.6898 2.50166 21.0288 2.50166 18.1635C2.50154 16.158 2.92148 14.2347 3.75007 12.4389Z" stroke="url(#paint2_linear_959_106114)" stroke-width="0.713923" mask="url(#path-1-outside-1_959_106114)"/>
<defs>
<linearGradient id="paint0_linear_959_106114" x1="21.6369" y1="-0.577986" x2="-0.547887" y2="36.4266" gradientUnits="userSpaceOnUse">
<stop stop-color="#8DCFC8"/>
<stop offset="1" stop-color="#1BA092"/>
</linearGradient>
<linearGradient id="paint1_linear_959_106114" x1="21.6369" y1="-0.577986" x2="-0.547887" y2="36.4266" gradientUnits="userSpaceOnUse">
<stop stop-color="#B6D153"/>
<stop offset="1" stop-color="#3D8A76"/>
</linearGradient>
<linearGradient id="paint2_linear_959_106114" x1="21.6369" y1="-0.577986" x2="-0.547887" y2="36.4266" gradientUnits="userSpaceOnUse">
<stop stop-color="#8DCFC8"/>
<stop offset="1" stop-color="#1BA092"/>
</linearGradient>
</defs>
</svg>
